<svg xmlns="http://www.w3.org/2000/svg" fill="none" viewBox="0 0 18 18">
    <path d="m0,2.699v12.6c0,1.491,1.209,2.7,2.7,2.7h12.6c1.491,0,2.7-1.209,2.7-2.7V2.699C18,1.208,16.791-.001,15.3-.001H2.7C1.209-.001,0,1.208,0,2.699ZM10.8-.001v3.6c0,3.976,3.224,7.2,7.2,7.2h-3.6c-3.976,0-7.199,3.222-7.2,7.198v-3.598c0-3.976-3.224-7.2-7.2-7.2h3.6C7.576,7.199,10.8,3.975,10.8-.001Z" fill-rule="evenodd" stroke-width="0"/>
    <style>
      path { fill: #000; }
      @media (prefers-color-scheme: dark) {
          path { fill: #FFF; }
      }
  </style>
  </svg>
  